<?xml version="1.0" encoding="UTF-8"?>
<svg id="Layer_2" data-name="Layer 2" xmlns="http://www.w3.org/2000/svg" viewBox="0 0 988.49 268.21">
  <defs>
    <style>
      .cls-1 {
        font-family: DMSans-Medium, 'DM Sans';
        font-size: 34.64px;
        font-weight: 500;
      }

      .cls-1, .cls-2 {
        fill: #121212;
      }

      .cls-3 {
        letter-spacing: .25em;
      }

      .cls-4 {
        letter-spacing: .3em;
      }

      .cls-2 {
        stroke-width: 0px;
      }

      .cls-5 {
        letter-spacing: .27em;
      }
    </style>
  </defs>
  <g id="Layer_1-2" data-name="Layer 1">
    <g>
      <path class="cls-2" d="M0,198.99v-118.7h40.95v17.12h.46c.31-.61.81-1.37,1.5-2.3.7-.93,2.2-2.55,4.51-4.85,2.31-2.31,4.79-4.4,7.42-6.25,2.63-1.86,6.02-3.52,10.19-4.99,4.16-1.47,8.4-2.2,12.71-2.2s8.86.62,13.18,1.86c4.33,1.24,7.49,2.48,9.5,3.7l3.25,1.86-17.14,34.7c-5.08-4.33-12.18-6.49-21.28-6.49-4.93,0-9.18,1.09-12.73,3.25-3.55,2.16-6.05,4.78-7.52,7.86-1.46,3.09-2.5,5.71-3.11,7.86-.62,2.16-.93,3.86-.93,5.09v62.47H0Z"/>
      <path class="cls-2" d="M217.26,145.3h-86.06c0,8.33,2.69,14.5,8.08,18.51,5.4,4.02,11.26,6.02,17.58,6.02,6.64,0,11.89-.89,15.75-2.67,3.85-1.78,8.25-5.29,13.18-10.53l29.63,14.82c-12.34,20.67-32.86,31-61.55,31-17.9,0-33.25-6.13-46.06-18.39-12.8-12.27-19.2-27.05-19.2-44.32s6.4-32.08,19.2-44.43c12.81-12.34,28.17-18.51,46.06-18.51,18.81,0,34.12,5.45,45.92,16.33,11.8,10.87,17.71,26.41,17.71,46.61,0,2.78-.08,4.63-.24,5.56ZM132.35,122.63h45.11c-.92-6.17-3.35-10.91-7.28-14.23-3.94-3.31-8.99-4.97-15.16-4.97-6.79,0-12.2,1.78-16.21,5.34-4,3.55-6.16,8.17-6.47,13.87Z"/>
      <path class="cls-2" d="M226.74,184.29c-11.11-12.11-16.65-26.96-16.65-44.55s5.55-32.47,16.65-44.65c11.12-12.19,25.23-18.29,42.36-18.29,15.72,0,28.68,4.94,38.87,14.82V0h40.95v198.99h-40.48v-13.42h-.46c-10.19,11.27-23.14,16.9-38.87,16.9-17.13,0-31.25-6.05-42.36-18.17ZM261.57,119.63c-5.31,5.24-7.96,11.96-7.96,20.13s2.54,14.84,7.62,20.01c5.09,5.16,11.8,7.74,20.13,7.74s14.62-2.62,19.79-7.86c5.17-5.24,7.76-11.87,7.76-19.91s-2.66-14.87-7.98-20.11c-5.33-5.26-11.84-7.88-19.57-7.88s-14.47,2.63-19.79,7.88Z"/>
      <path class="cls-2" d="M480.82,95.1c11.12,12.18,16.67,27.06,16.67,44.65s-5.56,32.43-16.67,44.55c-11.11,12.12-25.22,18.17-42.34,18.17-15.72,0-28.68-5.63-38.87-16.9h-.46v13.42h-40.48V0h40.95v91.62c10.19-9.87,23.14-14.82,38.87-14.82,17.12,0,31.24,6.1,42.34,18.29ZM446.34,159.77c5.09-5.17,7.64-11.84,7.64-20.01s-2.66-14.89-7.98-20.13c-5.31-5.26-11.9-7.88-19.77-7.88s-14.24,2.63-19.57,7.88c-5.33,5.24-7.98,11.95-7.98,20.11s2.58,14.67,7.74,19.91c5.17,5.24,11.77,7.86,19.81,7.86s15.03-2.58,20.11-7.74Z"/>
      <g>
        <path class="cls-2" d="M617.22,138.92c.58-.13,1.16-.25,1.74-.39,41.96-9.28,52.1-19.29,61.39-60.92h0s.01-.07.02-.1c-3.14-.46-6.38-.7-9.79-.7-17.13,0-31.25,6.1-42.37,18.29-5.67,6.21-9.89,13.13-12.66,20.74-2.67,7.32-4,15.29-4,23.9,0,1.88.07,3.74.19,5.56,1.06,15.18,6.55,28.18,16.46,38.99,11.12,12.12,25.23,18.17,42.37,18.17,3.24,0,6.37-.24,9.38-.72-9.19-40.19-19.64-50.03-61.02-59.18-.56-.13-1.14-.25-1.72-.38h-5.42v-3.27h5.42Z"/>
        <path class="cls-2" d="M750.39,80.28v118.71h-40.49v-13.43h-.47c-6.81,7.53-14.85,12.54-24.13,15.04,9.26-39.79,20.06-49.24,62.47-58.41h2.6v-3.27h-2.6c-43.17-9.33-53.59-19-62.95-60.59,9.48,2.14,17.69,6.58,24.61,13.29v-11.34h40.95Z"/>
      </g>
      <path class="cls-2" d="M611.79,142.19v-3.27h5.42c.58-.13,1.16-.25,1.74-.39-.1-8.38-1.23-15.94-3.41-22.69-2.9-9.03-7.66-16.6-14.29-22.7-11.8-10.89-27.11-16.33-45.92-16.33s-33.25,6.17-46.06,18.51c-12.81,12.35-19.2,27.15-19.2,44.42s6.39,32.05,19.2,44.33c12.82,12.26,28.16,18.39,46.06,18.39,28.69,0,49.21-10.33,61.55-31.01l-29.63-14.81c-4.94,5.25-9.33,8.75-13.18,10.54-3.85,1.78-9.1,2.67-15.75,2.67s-12.18-2.01-17.58-6.02c-5.39-4.02-8.08-10.19-8.08-18.52h86.05c.1-.56.16-1.47.21-2.74-.56-.13-1.14-.25-1.72-.38h-5.42ZM533.81,122.63c.31-5.7,2.47-10.32,6.47-13.86,4.02-3.56,9.42-5.34,16.21-5.34,6.17,0,11.22,1.66,15.15,4.97,3.94,3.32,6.36,8.06,7.28,14.23h-45.11Z"/>
      <path class="cls-2" d="M760.11,198.99v-118.7h40.95v12.49h.46c10.64-10.64,21.98-15.97,34.02-15.97,5.86,0,11.68.78,17.46,2.32,5.79,1.54,11.34,3.93,16.65,7.18,5.32,3.23,9.64,7.82,12.96,13.76,3.32,5.94,4.99,12.85,4.99,20.72v78.2h-40.97v-67.1c0-6.17-1.97-11.57-5.9-16.19-3.92-4.63-9.05-6.95-15.38-6.95s-11.76,2.4-16.78,7.18c-5.01,4.79-7.52,10.11-7.52,15.97v67.1h-40.95Z"/>
      <path class="cls-2" d="M946.61,76.8c6.78,0,13.48.78,20.11,2.32,6.64,1.54,11.58,3.08,14.82,4.63l4.87,2.3-13.42,26.84c-9.26-4.93-18.05-7.4-26.38-7.4-4.64,0-7.92.51-9.84,1.52-1.93,1-2.89,2.89-2.89,5.66,0,.62.07,1.24.22,1.86.16.61.47,1.18.93,1.72.47.54.89,1.01,1.27,1.39.39.39,1.04.82,1.96,1.27.93.46,1.66.81,2.2,1.05.54.23,1.42.58,2.67,1.03,1.24.46,2.16.81,2.77,1.05.62.23,1.66.58,3.13,1.03,1.47.46,2.59.77,3.36.93,4.78,1.39,8.94,2.93,12.49,4.63,3.54,1.7,7.28,4.02,11.22,6.95,3.93,2.93,6.98,6.62,9.14,11.1,2.17,4.48,3.25,9.56,3.25,15.26,0,27-18.75,40.5-56.23,40.5-8.49,0-16.55-1.31-24.19-3.94-7.63-2.63-13.14-5.24-16.53-7.86l-5.09-4.16,16.67-27.99c1.22,1.08,2.84,2.35,4.85,3.82,2.01,1.46,5.63,3.46,10.87,6,5.24,2.55,9.79,3.82,13.64,3.82,8.49,0,12.73-2.85,12.73-8.57,0-2.61-1.08-4.65-3.23-6.12-2.16-1.47-5.82-3.12-11-4.97-5.16-1.84-9.21-3.54-12.15-5.09-7.4-3.85-13.26-8.21-17.58-13.06-4.33-4.86-6.49-11.31-6.49-19.34,0-12.03,4.67-21.4,14.01-28.11,9.34-6.71,21.95-10.07,37.84-10.07Z"/>
      <text class="cls-1" transform="translate(358.56 259.09)"><tspan class="cls-4" x="0" y="0">GR</tspan><tspan class="cls-5" x="68.35" y="0">O</tspan><tspan class="cls-4" x="105.08" y="0">W </tspan><tspan class="cls-3" x="168.86" y="0">Y</tspan><tspan class="cls-4" x="198.48" y="0">OUR BUSINESS</tspan></text>
    </g>
  </g>
</svg>